<?xml version="1.0" encoding="utf-8"?>
<!-- Generator: Adobe Illustrator 13.0.0, SVG Export Plug-In  -->
<!DOCTYPE svg PUBLIC "-//W3C//DTD SVG 1.1//EN" "http://www.w3.org/Graphics/SVG/1.1/DTD/svg11.dtd" [
	<!ENTITY ns_flows "http://ns.adobe.com/Flows/1.0/">
]>
<svg version="1.1"
	 xmlns="http://www.w3.org/2000/svg" xmlns:xlink="http://www.w3.org/1999/xlink" xmlns:a="http://ns.adobe.com/AdobeSVGViewerExtensions/3.0/"
	 x="0px" y="0px" width="452px" height="452px" viewBox="170 159 452 452" enable-background="new 170 159 452 452"
	 xml:space="preserve">
<defs>
</defs>
<rect fill="none" width="800" height="800"/>
<rect fill="none" width="800" height="800"/>
<rect x="47" y="28" fill="none" width="721" height="721"/>
<rect fill="none" width="800" height="800"/>
<polygon fill="#62A4A7" points="577.7,385.4 568.1,385.5 558.5,385.6 557.7,385.6 523.6,385.8 520.9,385.8 518,385.8 487.1,386 
	483.7,386 479.2,386 478.3,386 420.6,386.3 420.1,386.4 419.6,386.4 399.2,386.5 397.3,386.5 397,386.5 397,386.5 397.4,387 
	398,387.8 398.4,388.3 403.4,394.5 411.3,404.2 412.6,404.1 429.1,402.6 429.6,402.6 430.1,402.5 477.5,398.3 478.3,398.2 
	483,397.7 486.4,397.4 520.5,394.4 523.2,394.1 523.3,394.1 557.5,391 558.4,390.9 568,390.1 577.7,389.2 578.5,389.1 621.4,385.2 
	621.1,385.2 578.5,385.4 "/>
<path fill="#71ADAF" d="M577.2,386.3c0,0-28.9,0.1-180.8,0.9c0-0.1-0.1,0.2,0.5-1.1c-1,2.2-0.3,0.6-0.5,1.1h0h0h0h0l0,0h0l0.1,0
	c0.1,0,0.1,0,0.1,0c0.1,0,0.2,0,0.2,0c0.1,0,0.2,0,0.2,0c0,0-0.2,0-0.5,0c0,0-0.1,0-0.1,0h0h0h0c-0.1,0.2,1-2,0.5-1l0,0l0,0l0,0.1
	c0.1,0.1,0.1,0.2,0.2,0.3c0.2,0.2,0.3,0.4,0.6,0.7c1.7,2.2,5.6,6.9,13.6,16.8c0,0,0.1,0-0.5-0.2c-17.8,1.8,64.3-5.3,210.2-18l0-0.9
	l0,0.9h0h0h0l0,0l0,0l0,0c0,0,0,0,0,0l0,0l0,0h0l0-0.9h0h0l0,0c0,0,0,0-0.1,0c0,0-0.1,0-0.2,0l0,0c0.1,0,0.1,0,0.2,0l0.1,0l0,0
	c0,1.9,0,0.5,0,1h0l0,0l0,0c-0.1,0-0.2,0-0.3,0c-0.2,0-0.3,0-0.4,0c-0.2,0-0.3,0-0.3,0c0,0,0.1,0,0.4,0c0.1,0,0.3,0,0.4,0
	c0.1,0,0.2,0,0.3,0l0,0l0,0c0,1,0-1.3,0-1.1h0l0,0l-0.1,0l-0.2,0c-1.7,0-5,0-9.3,0c-8.6,0-21.3,0-34.2,0c0,0,16.5-0.1,43.4-0.3h0
	l0,0c0.1,0,0.2,0,0.3,0l0,1.7c-48.6,4.4-131.4,11.8-210.1,18.8l-0.3,0l-0.2-0.3c-4.8-6-9.6-11.9-14.4-17.8l-0.8-1l1.2,0
	C486.2,385.6,565.6,385.6,577.2,386.3"/>
<polygon fill="#62A4A7" points="460,334.4 462.9,330.7 465,328 486.7,300.4 506,275.9 486.4,296 484.5,298.1 482.5,300.1 460.3,323 
	458,325.4 454.8,328.7 454.2,329.3 415.1,369.6 431.3,370.8 459.4,335 "/>
<polygon fill="#62A4A7" points="444.7,451.9 445.4,452.5 449.1,455.4 451.7,457.6 477.6,478.7 502.9,499.3 502.8,499.1 480.7,476 
	458,452.2 455.7,449.8 452.5,446.5 452,445.9 412.8,404.9 411.2,405 409.9,423.5 "/>
<polygon fill="#FFFFFF" points="396.4,609.5 396.9,602.3 396.4,609 "/>
<polygon fill="#FFFFFF" points="396.5,204.5 396.5,214.1 396.5,223.7 396.5,224.5 396.5,258.5 396.5,261.3 396.5,264.1 396.5,296.4 
	396.5,299.7 396.5,304.3 396.5,305.2 396.5,362.9 396.5,363.5 396.5,364 396.5,383.4 396.5,386.5 396.8,386.2 412.7,370.3 
	411.3,352.1 411.3,351.6 411.2,351.1 407.7,305.9 407.7,305.1 407.3,300.4 407,297 404.5,264.4 404.3,261.5 404.1,258.8 
	401.4,224.6 401.4,223.7 400.6,214.1 399.9,204.5 399.8,203.7 396.5,161 396.5,203.6 "/>
<polygon fill="#62A4A7" points="396.8,204.7 396.8,214.3 396.8,223.9 396.8,224.7 396.8,258.8 396.8,261.5 396.8,264.4 396.8,296.6 
	396.8,300 396.8,304.6 396.8,305.4 396.8,363.2 396.8,363.7 396.8,364.2 396.8,383.6 396.8,386.7 397.1,386.4 413,370.5 
	411.6,352.3 411.5,351.8 411.5,351.3 408,306.2 407.9,305.3 407.6,300.6 407.3,297.3 404.8,264.6 404.6,261.8 404.4,259 
	401.7,224.8 401.6,224 400.9,214.4 400.2,204.7 400.1,203.9 396.8,161.2 396.8,203.9 "/>
<polygon fill="#FFFFFF" points="396.4,386.5 396.5,386.5 396.2,386.2 "/>
<path fill="#71ADAF" d="M395.8,387.1c0,0,0-0.1,0-0.5c0.2-0.2,0.3-0.3,0.8-0.8C396.4,386,396.2,386.4,395.8,387.1
	c0,0-0.2-0.1-0.1-0.4l1-1C396.7,386,396.5,386.4,395.8,387.1"/>
<polygon fill="#62A4A7" points="396,566 396,565.9 396,556.3 396,546.7 396,546.5 396,545.8 396,511.8 396,509 396,506.2 396,476.6 
	396,473.2 396,468.6 396,467.8 396,413.3 396,412.7 396,412.2 396,398.4 396,389.3 396,388.3 396,387.3 396,387 395.8,387.2 
	394.7,388.3 376.7,406.3 376.7,406.6 376.9,408.1 378.4,424 378.5,424.5 378.5,425 382.5,466.6 382.6,467.5 383.1,472.2 
	383.4,475.6 386.6,508.6 390.2,545.7 390.3,546.5 391.2,556.2 392.2,565.8 392.3,566.7 396,605.2 396,566.7 "/>
<polygon fill="#62A4A7" points="342.1,325 338.4,322.2 335.7,320.1 310.1,300.5 309.8,300.2 307.9,298.7 284.4,280.7 305.7,301.1 
	330.7,325 333.1,327.3 336.5,330.5 337.1,331 376,368.3 377.5,352.3 342.7,325.5 "/>
<polygon fill="#62A4A7" points="332.7,438.2 329.8,441.9 327.7,444.6 307.1,470.8 287.4,496.1 287.6,495.9 310.1,473.8 333.5,450.8 
	335.8,448.4 339.1,445.2 339.7,444.6 376.1,408.8 375.9,407.1 358.5,405.3 333.2,437.5 "/>
<polygon fill="#62A4A7" points="215.8,385.4 225.4,385.5 235,385.6 235.8,385.6 269.9,385.8 272.6,385.8 275.5,385.8 306.4,386 
	309.8,386 314.4,386 315.2,386 369.2,386.3 369.7,386.3 370.3,386.3 395.1,386.5 396,386.5 396,386.1 386.5,378.3 376.7,370.2 
	376.7,370.3 358.3,371.6 357.8,371.7 357.3,371.7 316,374.7 315.2,374.8 310.5,375.1 307.1,375.4 275.7,377.6 272.9,377.9 
	270.1,378.1 235.9,380.5 235.1,380.6 225.5,381.3 215.8,382 215,382.1 172.2,385.2 215,385.4 "/>
<polygon fill="#62A4A7" points="355.7,369.1 366.1,358.8 366,358.6 355.6,369 "/>
<polygon fill="#62A4A7" points="357.6,370.8 357.7,370.8 367.9,360.5 367.8,360.4 357.4,370.8 "/>
<polygon fill="#62A4A7" points="361.3,370.6 361.6,370.5 368.5,363.6 369.8,362.3 369.7,362.2 368.5,363.4 "/>
<polygon fill="#62A4A7" points="421.3,343.5 420,344.5 413.7,350.8 412.1,352.4 412.2,352.6 414,350.8 "/>
<polygon fill="#62A4A7" points="440,328.4 438.6,329.5 417.4,350.8 412.4,355.7 412.4,356 417.6,350.8 "/>
<polygon fill="#62A4A7" points="455.6,316.4 455.6,316.4 458.6,313.4 457.3,314.5 455.6,316.2 421,350.8 412.7,359.1 412.7,359.3 
	421.3,350.8 "/>
<polygon fill="#62A4A7" points="428.5,350.8 455.6,323.7 472.1,307.2 472.1,307.2 496,283.3 494.6,284.4 471.8,307.2 455.6,323.4 
	428.3,350.8 413.2,365.8 413.2,366.1 428.5,350.8 "/>
<polygon fill="#62A4A7" points="305.1,481.4 325,461.6 348.7,437.9 348.7,437.9 368.5,418 376.2,410.3 376.2,410.1 368.5,417.8 
	368.5,417.8 348.4,437.9 348.4,437.9 325,461.3 325,461.3 304.9,481.4 304.9,481.4 298.5,487.8 299.8,486.8 "/>
<polygon fill="#62A4A7" points="368.5,421.4 352.1,437.9 352.1,437.9 325,465 315.9,474 317.1,473 325,465.2 325,465.2 352.3,437.9 
	352.3,437.9 368.5,421.7 368.5,421.7 376.5,413.6 376.5,413.4 368.5,421.4 "/>
<polygon fill="#62A4A7" points="355.7,437.9 355.7,437.9 333.3,460.2 334.5,459.3 355.9,437.9 368.5,425.3 368.5,425.3 376.9,416.9 
	376.8,416.7 368.5,425 "/>
<polygon fill="#62A4A7" points="368.5,428.7 359.3,437.9 359.3,437.9 350.6,446.5 351.9,445.6 359.6,437.9 359.6,437.9 368.5,428.9 
	377.2,420.2 377.2,420 368.5,428.7 "/>
<polygon fill="#62A4A7" points="368.5,432.3 368,432.8 369.2,431.8 377.5,423.5 377.5,423.3 368.5,432.3 "/>
<polygon fill="#62A4A7" points="414.2,404.8 413.4,405.5 413.6,405.6 414.5,404.7 "/>
<polygon fill="#62A4A7" points="418.2,404.4 415.2,407.4 415.3,407.5 418.4,404.4 "/>
<polygon fill="#62A4A7" points="422.2,404.1 417,409.2 417.1,409.4 422.4,404 "/>
<polygon fill="#62A4A7" points="426.1,403.7 418.7,411.1 418.9,411.2 426.4,403.7 "/>
<polygon fill="#62A4A7" points="429.9,403.6 420.5,412.9 420.6,413.1 430,403.7 "/>
<polygon fill="#62A4A7" points="431.4,405.7 422.3,414.8 422.4,414.9 431.5,405.8 "/>
<polygon fill="#62A4A7" points="433,407.7 424.1,416.7 424.2,416.8 433.1,407.9 "/>
<polygon fill="#62A4A7" points="434.6,409.8 425.8,418.5 426,418.6 434.7,409.9 "/>
<polygon fill="#62A4A7" points="437.7,413.9 429.4,422.2 429.5,422.4 437.9,414 "/>
<polygon fill="#62A4A7" points="439.3,415.9 431.2,424.1 431.3,424.2 439.4,416.1 "/>
<polygon fill="#62A4A7" points="440.9,418 432.9,425.9 433,426.1 441,418.1 "/>
<polygon fill="#62A4A7" points="442.5,420 434.7,427.8 434.8,427.9 442.6,420.2 "/>
<polygon fill="#62A4A7" points="444.1,422.1 436.5,429.7 436.6,429.8 444.2,422.2 "/>
<polygon fill="#62A4A7" points="445.6,424.1 438.2,431.5 438.4,431.6 445.7,424.3 "/>
<polygon fill="#62A4A7" points="447.2,426.2 440,433.4 440.1,433.5 447.3,426.3 "/>
<polygon fill="#62A4A7" points="448.8,428.2 441.8,435.2 441.9,435.4 448.9,428.4 "/>
<polygon fill="#62A4A7" points="450.4,430.3 443.6,437.1 443.7,437.2 450.5,430.4 "/>
<polygon fill="#62A4A7" points="446.7,437.9 452.1,432.5 451.9,432.3 446.4,437.9 445.3,438.9 445.5,439.1 446.7,437.9 "/>
<polygon fill="#62A4A7" points="456.8,438.6 456.7,438.5 455.6,439.6 455.6,439.6 450.6,444.5 450.8,444.6 455.6,439.8 "/>
<polygon fill="#62A4A7" points="458.4,440.7 458.3,440.6 458.3,440.5 452.4,446.4 452.5,446.5 455.6,443.4 "/>
<polygon fill="#62A4A7" points="455.6,447.1 459.9,442.7 459.8,442.6 455.6,446.8 455.6,446.8 454.2,448.2 454.3,448.4 455.6,447.1 
	"/>
<polygon fill="#62A4A7" points="461.4,444.6 456,450.1 456.1,450.2 461.5,444.8 "/>
<polygon fill="#62A4A7" points="463,446.7 457.7,451.9 457.9,452.1 463.1,446.8 "/>
<polygon fill="#62A4A7" points="464.6,448.7 459.5,453.8 459.6,453.9 464.7,448.9 "/>
<polygon fill="#62A4A7" points="466.1,450.8 461.3,455.6 461.4,455.8 466.2,450.9 "/>
<polygon fill="#62A4A7" points="467.7,452.8 463.1,457.5 463.2,457.6 467.8,453 "/>
<polygon fill="#62A4A7" points="469.3,454.9 464.8,459.4 464.9,459.5 469.4,455 "/>
<polygon fill="#62A4A7" points="470.9,456.9 466.6,461.2 466.7,461.3 471,457.1 "/>
<polygon fill="#62A4A7" points="472.4,459 468.4,463.1 468.5,463.2 472.6,459.1 "/>
<polygon fill="#62A4A7" points="475.6,463.1 471.9,466.8 472,466.9 475.7,463.2 "/>
<polygon fill="#62A4A7" points="477.2,465.1 473.7,468.6 473.8,468.8 477.3,465.3 "/>
<polygon fill="#62A4A7" points="478.8,467.2 475.5,470.5 475.6,470.6 478.9,467.3 "/>
<polygon fill="#62A4A7" points="480.3,469.3 477.2,472.4 477.4,472.5 480.4,469.4 "/>
<polygon fill="#62A4A7" points="481.9,471.3 479,474.2 479.1,474.3 482,471.4 "/>
<polygon fill="#62A4A7" points="483.5,473.4 480.8,476.1 480.9,476.2 483.6,473.5 "/>
<polygon fill="#62A4A7" points="485.2,475.5 485.1,475.4 482.5,477.9 482.7,478.1 485.2,475.6 "/>
<polygon fill="#62A4A7" points="486.6,477.5 484.3,479.8 484.4,479.9 486.8,477.6 "/>
<polygon fill="#62A4A7" points="488.3,479.7 488.2,479.5 486.3,481.4 486.3,481.4 486.1,481.6 486.2,481.8 486.6,481.4 "/>
<polygon fill="#62A4A7" points="489.8,481.6 487.9,483.5 488,483.6 489.9,481.7 "/>
<polygon fill="#62A4A7" points="491.4,483.6 489.6,485.4 489.8,485.5 491.5,483.8 "/>
<polygon fill="#62A4A7" points="494.5,487.7 493.2,489.1 493.3,489.2 494.6,487.9 "/>
<polygon fill="#62A4A7" points="496.1,489.8 495,490.9 495.1,491.1 496.2,489.9 "/>
<polygon fill="#62A4A7" points="497.7,491.8 496.7,492.8 496.8,492.9 497.8,492 "/>
<polygon fill="#62A4A7" points="498.5,494.6 498.6,494.8 499.1,494.3 499.1,494.3 499.4,494 499.3,493.9 499.1,494 "/>
<polygon fill="#62A4A7" points="500.4,496.6 500.9,496.1 500.8,495.9 500.3,496.5 "/>
<polygon fill="#62A4A7" points="502.2,498.5 502.5,498.1 502.4,498 502,498.4 "/>
<polygon fill="#62A4A7" points="503.9,500.3 504.1,500.2 504,500 503.8,500.2 "/>
<polygon fill="#62A4A7" points="336.2,345.1 343.8,337.5 343.7,337.4 336.1,345 "/>
<polygon fill="#62A4A7" points="337.8,347.1 345.7,339.3 345.5,339.1 337.7,347 "/>
<polygon fill="#62A4A7" points="339.4,349.1 347.5,341 347.4,340.9 339.3,349 "/>
<polygon fill="#62A4A7" points="341.2,350.8 340.9,351 341.1,351.1 341.4,350.8 341.4,350.8 349.4,342.8 349.3,342.7 341.2,350.8 
	"/>
<polygon fill="#62A4A7" points="344.8,350.8 342.6,353 342.7,353.1 345.1,350.8 351.2,344.6 351.1,344.5 344.8,350.8 "/>
<polygon fill="#62A4A7" points="348.4,350.8 344.2,355 344.3,355.1 348.7,350.8 353.1,346.4 353,346.2 348.4,350.8 "/>
<polygon fill="#62A4A7" points="352.1,350.8 345.8,357 345.9,357.1 352.3,350.8 352.3,350.8 355,348.1 354.8,348 "/>
<polygon fill="#62A4A7" points="347.5,359 347.6,359.1 355.9,350.8 355.9,350.8 356.8,349.9 356.7,349.8 355.7,350.8 "/>
<polygon fill="#62A4A7" points="349.2,361.1 358.7,351.7 358.5,351.6 349.1,361 "/>
<polygon fill="#62A4A7" points="350.8,363.1 360.5,353.4 360.4,353.3 350.7,363 "/>
<polygon fill="#62A4A7" points="352.5,365.1 362.4,355.2 362.2,355.1 352.3,365 "/>
<polygon fill="#62A4A7" points="316.6,321.1 321.5,316.2 321.4,316.1 316.5,321 "/>
<polygon fill="#62A4A7" points="318.3,323.1 323.4,318 323.3,317.9 318.1,323 "/>
<polygon fill="#62A4A7" points="319.8,325 319.9,325.1 325,320.1 325,320.1 325.2,319.8 325.1,319.6 325,319.8 "/>
<polygon fill="#62A4A7" points="321.4,327 321.5,327.1 325,323.7 327.1,321.5 327,321.4 325,323.4 "/>
<polygon fill="#62A4A7" points="323,329 323.1,329.1 325,327.3 325,327.3 329,323.3 328.8,323.2 325,327.1 "/>
<polygon fill="#62A4A7" points="326.4,333.1 332.7,326.9 332.5,326.7 326.3,333 "/>
<polygon fill="#62A4A7" points="328,335.1 334.5,328.6 334.4,328.5 327.9,335 "/>
<polygon fill="#62A4A7" points="329.7,337.1 336.4,330.4 336.3,330.3 329.5,337 "/>
<polygon fill="#62A4A7" points="331.3,339.1 338.2,332.2 338.1,332.1 331.2,339 "/>
<polygon fill="#62A4A7" points="332.9,341.1 340.1,333.9 340,333.8 332.8,341 "/>
<polygon fill="#62A4A7" points="334.5,343.1 342,335.7 341.8,335.6 334.4,343 "/>
<polygon fill="#62A4A7" points="297.1,297.1 299.3,294.9 299.1,294.8 297,297 "/>
<polygon fill="#62A4A7" points="298.7,299.1 301.1,296.7 301,296.6 298.6,299 "/>
<polygon fill="#62A4A7" points="300.4,301.1 303,298.5 302.8,298.4 300.2,301 "/>
<polygon fill="#62A4A7" points="302,303.1 304.8,300.3 304.7,300.1 301.9,303 "/>
<polygon fill="#62A4A7" points="303.6,305.1 306.7,302 306.6,301.9 303.5,305 "/>
<polygon fill="#62A4A7" points="305.2,307.1 308.5,303.8 308.4,303.7 305.1,307 "/>
<polygon fill="#62A4A7" points="308.5,307.2 306.7,309 306.9,309.1 308.8,307.2 308.8,307.2 310.4,305.6 310.3,305.5 308.5,307.2 
	"/>
<polygon fill="#62A4A7" points="308.5,311.1 312.3,307.4 312.1,307.2 308.4,311 "/>
<polygon fill="#62A4A7" points="310.1,313.1 314.1,309.1 314,309 310,313 "/>
<polygon fill="#62A4A7" points="311.7,315.1 316,310.9 315.8,310.8 311.6,315 "/>
<polygon fill="#62A4A7" points="313.4,317.1 317.8,312.7 317.7,312.6 313.3,317 "/>
<polygon fill="#62A4A7" points="315,319.1 319.7,314.5 319.5,314.3 314.9,319 "/>
<polygon fill="#62A4A7" points="282.4,278.9 282.3,279 282.4,279.1 282.6,279 "/>
<polygon fill="#62A4A7" points="284.4,280.7 284.3,280.6 284,281 284.1,281.1 284.4,280.8 "/>
<polygon fill="#62A4A7" points="286.1,282.4 285.6,283 285.7,283.1 286.3,282.5 "/>
<polygon fill="#62A4A7" points="288,284.2 287.2,285 287.3,285.1 288.1,284.3 "/>
<polygon fill="#62A4A7" points="289.9,286 288.8,287 289,287.1 290,286.1 "/>
<polygon fill="#62A4A7" points="291.7,287.7 290.5,289 290.6,289.1 291.8,287.9 "/>
<polygon fill="#62A4A7" points="293.7,289.6 293.6,289.5 292.1,291 292.2,291.1 "/>
<polygon fill="#62A4A7" points="293.8,293.1 295.6,291.4 295.4,291.3 293.7,293 "/>
<polygon fill="#62A4A7" points="492.9,485.7 491.4,487.2 491.5,487.3 493.1,485.8 "/>
<polygon fill="#62A4A7" points="474,461 470.1,464.9 470.3,465.1 474.1,461.2 "/>
<polygon fill="#62A4A7" points="453.6,434.5 453.5,434.4 450,437.9 450,437.9 447.1,440.8 447.2,440.9 450.3,437.9 "/>
<polygon fill="#62A4A7" points="453.9,437.9 455.2,436.6 455.1,436.4 453.7,437.9 453.7,437.9 448.9,442.7 449,442.8 453.9,437.9 
	"/>
<polygon fill="#62A4A7" points="436.2,411.8 427.6,420.4 427.7,420.5 436.3,412 "/>
<polygon fill="#62A4A7" points="295.5,295.1 297.4,293.2 297.3,293.1 295.3,295 "/>
<polygon fill="#62A4A7" points="325,330.7 324.7,331 324.8,331.1 325,331 325,331 330.8,325.1 330.7,325 330.7,325 325,330.7 "/>
<polygon fill="#62A4A7" points="354.1,367.1 364.2,357 364.1,356.9 354,367 "/>
<polygon fill="#62A4A7" points="368.5,367 365.2,370.3 365.5,370.3 368.5,367.2 371.7,364.1 371.5,364 368.5,367 "/>
<polygon fill="#62A4A7" points="369.4,370 373.5,365.9 373.4,365.7 369.1,370 "/>
<polygon fill="#62A4A7" points="373.3,369.7 375.4,367.6 375.2,367.5 373,369.7 "/>
<polygon fill="#62A4A7" points="455.6,320.1 468.4,307.2 468.4,307.2 477.3,298.4 476,299.4 468.2,307.2 455.6,319.8 424.6,350.8 
	424.6,350.8 412.9,362.5 412.9,362.7 424.9,350.8 "/>
<polygon fill="#62A4A7" points="475.4,307.2 455.6,327.1 431.9,350.8 431.9,350.8 413.4,369.2 413.5,369.4 432.1,350.8 432.1,350.8 
	455.6,327.3 472.2,310.7 480.5,302.1 "/>
<polygon fill="#62A4A7" points="385.1,357.1 376.7,365.5 376.7,366 385.5,357.1 396.5,346.1 396.5,345.7 385.1,357.1 "/>
<polygon fill="#62A4A7" points="356,386.2 339.3,402.9 339.7,402.9 356.4,386.3 "/>
<polygon fill="#62A4A7" points="361.9,386.3 344.8,403.4 345.2,403.5 362.4,386.3 "/>
<polygon fill="#62A4A7" points="391.1,357.1 377.4,370.8 377.6,371 391.5,357.1 391.5,357.1 396.5,352.1 396.5,351.7 391.1,357.1 
	"/>
<polygon fill="#62A4A7" points="367.9,386.3 350.2,404 350.6,404 368.3,386.3 "/>
<polygon fill="#62A4A7" points="380.9,373.7 396.5,358.1 396.5,357.7 380.7,373.5 "/>
<polygon fill="#62A4A7" points="392.2,386.5 391.8,386.5 376.3,402 376.3,402 372,406.2 372.4,406.3 376.3,402.4 "/>
<polygon fill="#62A4A7" points="394.1,384.5 396.5,382.1 396.5,381.7 393.9,384.3 "/>
<polygon fill="#62A4A7" points="398.2,386.5 414.6,370 414.2,370 397.7,386.5 "/>
<polygon fill="#62A4A7" points="396,388.7 397.2,387.5 397,387.2 396,388.2 "/>
<polygon fill="#62A4A7" points="396,394.7 399.9,390.8 399.7,390.5 396,394.2 "/>
<polygon fill="#62A4A7" points="404.2,386.4 420.2,370.4 419.8,370.4 403.8,386.4 "/>
<polygon fill="#62A4A7" points="396,400.7 402.6,394.1 402.4,393.8 396,400.2 "/>
<polygon fill="#62A4A7" points="410.2,386.4 425.8,370.8 425.4,370.8 409.8,386.4 "/>
<polygon fill="#62A4A7" points="416.3,386.4 431.4,371.2 431,371.2 415.8,386.4 "/>
<polygon fill="#62A4A7" points="396,406.7 405.3,397.4 405.1,397.2 396,406.2 "/>
<polygon fill="#62A4A7" points="396,412.7 407.9,400.7 407.8,400.5 396,412.2 "/>
<polygon fill="#62A4A7" points="422.3,386.3 437,371.6 436.6,371.6 421.9,386.3 "/>
<polygon fill="#62A4A7" points="428.3,386.3 442.6,372 442.2,372 427.9,386.3 "/>
<polygon fill="#62A4A7" points="396,418.7 410.6,404 410.4,403.8 396,418.2 "/>
<polygon fill="#62A4A7" points="396,424.7 410.9,409.8 410.9,409.3 396,424.2 "/>
<polygon fill="#62A4A7" points="434.4,386.3 448.2,372.4 447.8,372.4 434,386.3 "/>
<polygon fill="#62A4A7" points="396,436.2 396,436.7 403.5,429.1 403.5,429.1 409.9,422.7 410,422.3 403.1,429.1 "/>
<polygon fill="#62A4A7" points="446,386.2 446.5,386.2 448.3,384.4 459.4,373.2 459,373.2 448.3,384 "/>
<polygon fill="#62A4A7" points="396,448.7 409,435.7 409,435.2 396,448.2 "/>
<polygon fill="#62A4A7" points="458.5,386.1 470.6,374 470.2,374 458.1,386.1 "/>
<polygon fill="#62A4A7" points="396,454.7 408.5,442.1 408.6,441.7 396,454.2 "/>
<polygon fill="#62A4A7" points="464.6,386.1 476.2,374.4 475.8,374.4 464.1,386.1 "/>
<polygon fill="#62A4A7" points="396,460.7 408.1,448.6 408.1,448.1 396,460.2 "/>
<polygon fill="#62A4A7" points="470.6,386.1 481.8,374.8 481.4,374.8 470.2,386.1 "/>
<polygon fill="#62A4A7" points="396,466.7 407.6,455.1 407.6,454.6 396,466.2 "/>
<polygon fill="#62A4A7" points="476.6,386 487.4,375.2 487,375.2 476.2,386 "/>
<polygon fill="#62A4A7" points="396,472.7 407.1,461.5 407.1,461.1 396,472.2 "/>
<polygon fill="#62A4A7" points="482.7,386 493,375.6 492.6,375.6 482.2,386 "/>
<polygon fill="#62A4A7" points="396,484.7 406.1,474.6 406.1,474.2 396,484.2 "/>
<polygon fill="#62A4A7" points="494.7,385.9 504.2,376.4 503.8,376.4 494.3,385.9 "/>
<polygon fill="#62A4A7" points="396,490.7 405.7,480.9 405.7,480.5 396,490.2 "/>
<polygon fill="#62A4A7" points="500.8,385.9 509.8,376.8 509.4,376.8 500.3,385.9 "/>
<polygon fill="#62A4A7" points="506.8,385.8 515.4,377.2 515,377.2 506.4,385.8 "/>
<polygon fill="#62A4A7" points="396,496.7 405.2,487.4 405.3,487 396,496.2 "/>
<polygon fill="#62A4A7" points="397.1,501.1 396,502.2 396,502.7 397.5,501.1 397.5,501.1 404.8,493.9 404.8,493.4 397.1,501.1 "/>
<polygon fill="#62A4A7" points="520.3,378 512.4,385.8 512.8,385.8 520.3,378.4 520.3,378.4 521,377.6 520.6,377.6 520.3,378 "/>
<polygon fill="#62A4A7" points="403.1,501.1 396,508.2 396,508.7 403.5,501.1 403.5,501.1 404.3,500.4 404.3,499.9 403.1,501.1 "/>
<polygon fill="#62A4A7" points="520.3,384 518.4,385.8 518.9,385.8 520.3,384.4 520.3,384.4 526.6,378 526.2,378 520.3,384 "/>
<polygon fill="#62A4A7" points="396,514.7 403.8,506.8 403.8,506.4 396,514.2 "/>
<polygon fill="#62A4A7" points="524.9,385.7 532.2,378.4 531.8,378.4 524.5,385.7 "/>
<polygon fill="#62A4A7" points="530.9,385.7 537.8,378.8 537.4,378.8 530.5,385.7 "/>
<polygon fill="#62A4A7" points="396,520.7 403.3,513.3 403.4,512.8 396,520.2 "/>
<polygon fill="#62A4A7" points="396,526.7 402.9,519.8 402.9,519.3 396,526.2 "/>
<polygon fill="#62A4A7" points="537,385.7 543.4,379.2 543,379.2 536.5,385.7 "/>
<polygon fill="#62A4A7" points="543,385.6 549,379.6 548.6,379.6 542.6,385.6 "/>
<polygon fill="#62A4A7" points="396,532.7 402.4,526.2 402.4,525.8 396,532.2 "/>
<polygon fill="#62A4A7" points="549,385.6 554.6,380 554.2,380 548.6,385.6 "/>
<polygon fill="#62A4A7" points="396,538.7 401.9,532.7 402,532.3 396,538.2 "/>
<polygon fill="#62A4A7" points="555.1,385.6 560.2,380.4 559.8,380.4 554.6,385.6 "/>
<polygon fill="#62A4A7" points="396,544.7 401.5,539.2 401.5,538.7 396,544.2 "/>
<polygon fill="#62A4A7" points="396,556.7 400.5,552.1 400.5,551.7 396,556.2 "/>
<polygon fill="#62A4A7" points="567.1,385.5 571.4,381.2 571,381.2 566.7,385.5 "/>
<polygon fill="#62A4A7" points="396,562.7 400,558.6 400.1,558.1 396,562.2 "/>
<polygon fill="#62A4A7" points="573.2,385.5 577,381.6 576.6,381.6 572.7,385.5 "/>
<polygon fill="#62A4A7" points="579.2,385.4 582.6,382 582.2,382 578.8,385.4 "/>
<polygon fill="#62A4A7" points="396,568.7 399.6,565.1 399.6,564.6 396,568.2 "/>
<polygon fill="#62A4A7" points="585.2,385.4 588.2,382.4 587.8,382.4 584.8,385.4 "/>
<polygon fill="#62A4A7" points="397.1,573.1 396,574.2 396,574.7 397.5,573.1 399.1,571.5 399.1,571.1 397.1,573.1 "/>
<polygon fill="#62A4A7" points="396,580.7 398.6,578 398.7,577.6 396,580.2 "/>
<polygon fill="#62A4A7" points="592.3,384 590.8,385.4 591.3,385.4 592.3,384.4 592.3,384.4 593.8,382.8 593.4,382.8 592.3,384 "/>
<polygon fill="#62A4A7" points="597.3,385.3 599.4,383.3 599,383.2 596.9,385.3 "/>
<polygon fill="#62A4A7" points="396,586.7 398.2,584.5 398.2,584 396,586.2 "/>
<polygon fill="#62A4A7" points="603.3,385.3 605,383.7 604.6,383.6 602.9,385.3 "/>
<polygon fill="#62A4A7" points="396,592.7 397.7,591 397.7,590.5 396,592.2 "/>
<polygon fill="#62A4A7" points="396,598.7 397.2,597.4 397.2,597 396,598.2 "/>
<polygon fill="#62A4A7" points="609.4,385.3 610.6,384.1 610.2,384 609,385.3 "/>
<polygon fill="#62A4A7" points="396,604.7 396.7,603.9 396.8,603.4 396,604.2 "/>
<polygon fill="#62A4A7" points="615.4,385.2 616.2,384.5 615.8,384.4 615,385.2 "/>
<polygon fill="#62A4A7" points="396,610.7 396.3,610.4 396.3,609.9 396,610.2 "/>
<polygon fill="#62A4A7" points="621.5,385.2 621.8,384.9 621.4,384.8 621,385.2 "/>
<polygon fill="#62A4A7" points="385.1,285.1 384.2,286 384.2,286.5 385.5,285.1 385.5,285.1 396.5,274.1 396.5,273.7 385.1,285.1 
	"/>
<polygon fill="#62A4A7" points="284.4,385.8 274,396.2 274.4,396.2 284.8,385.8 "/>
<polygon fill="#62A4A7" points="290.3,385.9 279.5,396.7 279.9,396.8 290.8,385.9 "/>
<polygon fill="#62A4A7" points="383.6,292.6 383.5,293.1 391.5,285.1 396.5,280.1 396.5,279.7 391.1,285.1 "/>
<polygon fill="#62A4A7" points="382.9,299.7 396.5,286.1 396.5,285.7 382.9,299.3 "/>
<polygon fill="#62A4A7" points="296.3,385.9 284.9,397.3 285.3,397.3 296.7,385.9 "/>
<polygon fill="#62A4A7" points="302.3,385.9 290.4,397.9 290.8,397.9 302.7,385.9 "/>
<polygon fill="#62A4A7" points="382.3,306.4 396.5,292.1 396.5,291.7 382.3,305.9 "/>
<polygon fill="#62A4A7" points="381.7,313 396.5,298.1 396.5,297.7 381.7,312.5 "/>
<polygon fill="#62A4A7" points="304.3,390.4 308.7,386 308.2,386 304.3,390 304.3,390 295.8,398.4 296.2,398.4 304.3,390.4 "/>
<polygon fill="#62A4A7" points="381,319.6 396.5,304.1 396.5,303.7 381.1,319.1 "/>
<polygon fill="#62A4A7" points="314.6,386 314.3,386 314.2,386 304.3,396 304.3,396 301.3,399 301.6,399 304.3,396.4 "/>
<polygon fill="#62A4A7" points="320.2,386 306.7,399.5 307.1,399.6 320.6,386 "/>
<polygon fill="#62A4A7" points="380.4,326.2 396.5,310.1 396.5,309.7 380.5,325.8 "/>
<polygon fill="#62A4A7" points="379.8,332.9 396.5,316.1 396.5,315.7 379.8,332.4 "/>
<polygon fill="#62A4A7" points="326.1,386.1 312.1,400.1 312.5,400.1 326.6,386.1 "/>
<polygon fill="#62A4A7" points="379.2,339.5 396.5,322.1 396.5,321.7 379.2,339 "/>
<polygon fill="#62A4A7" points="332.1,386.1 317.6,400.6 318,400.7 332.5,386.1 "/>
<polygon fill="#62A4A7" points="338.1,386.1 323,401.2 323.4,401.2 338.5,386.1 "/>
<polygon fill="#62A4A7" points="378.5,346.1 396.5,328.1 396.5,327.7 378.6,345.6 "/>
<polygon fill="#62A4A7" points="344,386.2 328.5,401.8 328.8,401.8 344.5,386.2 "/>
<polygon fill="#62A4A7" points="377.9,352.6 377.9,352.7 396.5,334.1 396.5,333.7 377.9,352.3 "/>
<polygon fill="#62A4A7" points="212.8,385.4 208.8,389.5 209.1,389.5 213.2,385.4 "/>
<polygon fill="#62A4A7" points="391.7,207 396.5,202.1 396.5,201.7 391.7,206.5 "/>
<polygon fill="#62A4A7" points="218.8,385.5 214.2,390 214.6,390.1 219.2,385.5 "/>
<polygon fill="#62A4A7" points="391.1,213.1 391.1,213.1 391,213.6 391.5,213.1 396.5,208.1 396.5,207.7 391.1,213.1 "/>
<polygon fill="#62A4A7" points="390.4,220.2 396.5,214.1 396.5,213.7 390.5,219.8 "/>
<polygon fill="#62A4A7" points="224.7,385.5 219.6,390.6 220,390.6 225.1,385.5 "/>
<polygon fill="#62A4A7" points="230.7,385.5 225.1,391.1 225.5,391.2 231.1,385.5 "/>
<polygon fill="#62A4A7" points="389.8,226.9 396.5,220.1 396.5,219.7 389.8,226.4 "/>
<polygon fill="#62A4A7" points="232.3,390.4 237.1,385.6 236.7,385.6 232.3,390 232.3,390 230.5,391.7 230.9,391.7 232.3,390.4 "/>
<polygon fill="#62A4A7" points="389.2,233.5 396.5,226.1 396.5,225.7 389.2,233 "/>
<polygon fill="#62A4A7" points="387.9,246.7 396.5,238.1 396.5,237.7 387.9,246.3 "/>
<polygon fill="#62A4A7" points="248.6,385.6 241.4,392.8 241.8,392.9 249,385.6 "/>
<polygon fill="#62A4A7" points="387.3,253.4 396.5,244.1 396.5,243.7 387.3,252.9 "/>
<polygon fill="#62A4A7" points="254.6,385.7 246.8,393.4 247.2,393.4 255,385.7 "/>
<polygon fill="#62A4A7" points="386.7,260 396.5,250.1 396.5,249.7 386.7,259.5 "/>
<polygon fill="#62A4A7" points="260.5,385.7 252.3,393.9 252.7,394 260.9,385.7 "/>
<polygon fill="#62A4A7" points="266.5,385.7 257.7,394.5 258.1,394.5 266.9,385.7 "/>
<polygon fill="#62A4A7" points="386,266.6 396.5,256.1 396.5,255.7 386.1,266.1 "/>
<polygon fill="#62A4A7" points="272.6,385.8 272.4,385.8 263.2,395.1 263.5,395.1 272.9,385.8 "/>
<polygon fill="#62A4A7" points="385.4,273.2 396.5,262.1 396.5,261.7 385.4,272.8 "/>
<polygon fill="#62A4A7" points="278.4,385.8 268.6,395.6 269,395.7 278.8,385.8 "/>
<polygon fill="#62A4A7" points="384.8,279.9 396.5,268.1 396.5,267.7 384.8,279.4 "/>
<polygon fill="#62A4A7" points="171,385.2 170.7,385.5 171.1,385.6 171.5,385.2 "/>
<polygon fill="#62A4A7" points="396.1,160.2 396,160.6 396.5,160.1 396.5,159.7 "/>
<polygon fill="#62A4A7" points="395.4,167.2 396.5,166.1 396.5,165.7 395.4,166.8 "/>
<polygon fill="#62A4A7" points="177,385.2 176.1,386.1 176.5,386.1 177.4,385.2 "/>
<polygon fill="#62A4A7" points="394.8,173.9 396.5,172.1 396.5,171.7 394.8,173.4 "/>
<polygon fill="#62A4A7" points="183,385.3 181.6,386.7 181.9,386.7 183.4,385.3 "/>
<polygon fill="#62A4A7" points="394.1,180.5 396.5,178.1 396.5,177.7 394.2,180 "/>
<polygon fill="#62A4A7" points="188.9,385.3 187,387.2 187.4,387.3 189.4,385.3 "/>
<polygon fill="#62A4A7" points="393.5,187.1 396.5,184.1 396.5,183.7 393.6,186.7 "/>
<polygon fill="#62A4A7" points="194.9,385.3 192.4,387.8 192.8,387.8 195.3,385.3 "/>
<polygon fill="#62A4A7" points="200.9,385.4 197.9,388.3 198.3,388.4 201.3,385.4 "/>
<polygon fill="#62A4A7" points="392.9,193.7 396.5,190.1 396.5,189.7 392.9,193.3 "/>
<polygon fill="#62A4A7" points="392.3,200.4 396.5,196.1 396.5,195.7 392.3,199.9 "/>
<polygon fill="#62A4A7" points="206.8,385.4 203.3,388.9 203.7,388.9 207.2,385.4 "/>
<polygon fill="#62A4A7" points="396,550.7 401,545.7 401,545.2 396,550.2 "/>
<polygon fill="#62A4A7" points="561.1,385.5 565.8,380.8 565.4,380.8 560.7,385.5 "/>
<polygon fill="#62A4A7" points="488.7,386 498.6,376 498.2,376 488.3,386 "/>
<path fill="#62A4A7" d="M396,478.7l10.3-10.3c0-0.2,0-0.3,0-0.5L396,478.2V478.7z"/>
<polygon fill="#62A4A7" points="388.5,240.1 396.5,232.1 396.5,231.7 388.6,239.6 "/>
<polygon fill="#62A4A7" points="242.6,385.6 236,392.3 236,392.3 236.3,392.3 243,385.6 "/>
<polygon fill="#62A4A7" points="350,386.2 333.9,402.3 334.3,402.4 350.4,386.2 "/>
<polygon fill="#62A4A7" points="379.1,357.1 377.3,358.9 377.3,359.4 379.5,357.1 396.5,340.1 396.5,339.7 379.1,357.1 "/>
<polygon fill="#62A4A7" points="384.2,376.4 396.5,364.1 396.5,363.7 384,376.2 "/>
<polygon fill="#62A4A7" points="373.9,386.4 355.7,404.6 356,404.6 374.3,386.4 "/>
<polygon fill="#62A4A7" points="376.3,390.4 380.3,386.4 379.8,386.4 376.3,390 376.3,390 361.1,405.1 361.5,405.2 376.3,390.4 "/>
<polygon fill="#62A4A7" points="387.5,379.1 396.5,370.1 396.5,369.7 387.3,378.9 "/>
<polygon fill="#62A4A7" points="376.3,396.4 386.2,386.4 385.8,386.4 376.3,396 376.3,396 366.5,405.7 366.9,405.7 376.3,396.4 "/>
<polygon fill="#62A4A7" points="390.8,381.8 396.5,376.1 396.5,375.7 390.6,381.6 "/>
<polygon fill="#62A4A7" points="397.1,429.1 396,430.2 396,430.7 397.5,429.1 397.5,429.1 410.4,416.2 410.4,415.8 397.1,429.1 "/>
<polygon fill="#62A4A7" points="448.3,378 440,386.2 440.4,386.2 448.3,378.4 453.8,372.8 453.4,372.8 448.3,378 "/>
<polygon fill="#62A4A7" points="409.1,429.1 396,442.2 396,442.7 409.5,429.2 409.5,428.7 409.1,429.1 "/>
<polygon fill="#62A4A7" points="452.5,386.2 465,373.6 464.6,373.6 452.1,386.2 "/>
<line fill="none" stroke="#62A4A7" x1="396.5" y1="160.1" x2="413" y2="371.3"/>
</svg>
